<svg width="272" height="251" viewBox="0 0 272 251" fill="none" xmlns="http://www.w3.org/2000/svg">
<path d="M108.11 81.3787C108.703 81.3787 109.189 81.3338 109.566 81.244C109.962 81.1362 110.277 81.0014 110.511 80.8397C110.744 80.66 110.906 80.4533 110.996 80.2197C111.086 79.9861 111.131 79.7255 111.131 79.438C111.131 78.827 110.843 78.3239 110.268 77.9285C109.692 77.5152 108.703 77.075 107.3 76.6077C106.689 76.3921 106.077 76.1495 105.466 75.88C104.854 75.5924 104.306 75.242 103.82 74.8287C103.334 74.3975 102.939 73.8853 102.633 73.2923C102.327 72.6813 102.174 71.9446 102.174 71.082C102.174 70.2195 102.336 69.4468 102.66 68.7639C102.984 68.0631 103.442 67.4701 104.036 66.9849C104.629 66.4997 105.349 66.1313 106.194 65.8797C107.039 65.6102 107.993 65.4754 109.054 65.4754C110.313 65.4754 111.401 65.6102 112.318 65.8797C113.235 66.1493 113.991 66.4458 114.584 66.7692L113.37 70.0847C112.849 69.8151 112.264 69.5815 111.617 69.3839C110.987 69.1682 110.223 69.0604 109.324 69.0604C108.316 69.0604 107.588 69.2042 107.138 69.4917C106.707 69.7612 106.491 70.1835 106.491 70.7586C106.491 71.1 106.572 71.3875 106.734 71.6211C106.896 71.8547 107.12 72.0704 107.408 72.268C107.714 72.4477 108.056 72.6184 108.433 72.7802C108.829 72.9239 109.261 73.0767 109.728 73.2384C110.7 73.5978 111.545 73.9572 112.264 74.3166C112.984 74.658 113.577 75.0623 114.045 75.5296C114.53 75.9968 114.89 76.5449 115.124 77.1738C115.358 77.8027 115.475 78.5665 115.475 79.465C115.475 81.208 114.863 82.5648 113.64 83.5351C112.417 84.4875 110.574 84.9637 108.11 84.9637C107.282 84.9637 106.536 84.9098 105.87 84.802C105.205 84.7122 104.611 84.5954 104.09 84.4516C103.586 84.3078 103.146 84.1551 102.768 83.9934C102.408 83.8316 102.102 83.6789 101.851 83.5351L103.038 80.1927C103.595 80.4982 104.279 80.7768 105.088 81.0283C105.915 81.2619 106.923 81.3787 108.11 81.3787Z" fill="white"/>
<path d="M130.556 84.1012C129.873 84.2989 128.992 84.4786 127.913 84.6403C126.833 84.82 125.7 84.9098 124.513 84.9098C123.308 84.9098 122.301 84.7481 121.492 84.4246C120.7 84.1012 120.071 83.6519 119.603 83.0769C119.136 82.4839 118.803 81.7831 118.605 80.9744C118.407 80.1658 118.308 79.2763 118.308 78.3059V70.4081H122.328V77.8207C122.328 79.1145 122.499 80.049 122.841 80.624C123.182 81.1991 123.821 81.4866 124.756 81.4866C125.044 81.4866 125.35 81.4776 125.673 81.4596C125.997 81.4237 126.285 81.3877 126.537 81.3518V70.4081H130.556V84.1012Z" fill="white"/>
<path d="M143.422 77.6051C143.422 76.3652 143.143 75.3768 142.585 74.64C142.028 73.8853 141.2 73.5079 140.103 73.5079C139.744 73.5079 139.411 73.5259 139.105 73.5619C138.799 73.5798 138.547 73.6068 138.35 73.6427V80.8936C138.601 81.0553 138.925 81.1901 139.321 81.2979C139.735 81.4057 140.148 81.4596 140.562 81.4596C142.468 81.4596 143.422 80.1748 143.422 77.6051ZM147.522 77.4973C147.522 78.5934 147.387 79.5907 147.118 80.4892C146.848 81.3877 146.452 82.1604 145.931 82.8074C145.409 83.4543 144.762 83.9574 143.988 84.3168C143.215 84.6762 142.324 84.8559 141.317 84.8559C140.76 84.8559 140.238 84.802 139.753 84.6942C139.267 84.5864 138.799 84.4336 138.35 84.236V89.573H134.33V70.8933C134.69 70.7855 135.103 70.6867 135.571 70.5968C136.038 70.489 136.524 70.3992 137.028 70.3273C137.549 70.2554 138.071 70.2015 138.592 70.1655C139.132 70.1116 139.645 70.0847 140.13 70.0847C141.299 70.0847 142.342 70.2644 143.26 70.6238C144.177 70.9652 144.95 71.4594 145.58 72.1063C146.209 72.7352 146.686 73.5079 147.01 74.4244C147.351 75.3409 147.522 76.3652 147.522 77.4973Z" fill="white"/>
<path d="M149.937 77.6051C149.937 76.3472 150.126 75.251 150.504 74.3166C150.9 73.3642 151.412 72.5735 152.042 71.9446C152.671 71.3156 153.391 70.8394 154.2 70.516C155.027 70.1925 155.873 70.0308 156.736 70.0308C158.75 70.0308 160.342 70.6507 161.511 71.8907C162.68 73.1126 163.265 74.9186 163.265 77.3086C163.265 77.5422 163.256 77.8027 163.238 78.0903C163.22 78.3598 163.202 78.6024 163.184 78.818H154.065C154.155 79.6447 154.542 80.3006 155.225 80.7857C155.909 81.2709 156.826 81.5135 157.977 81.5135C158.714 81.5135 159.434 81.4506 160.135 81.3248C160.855 81.1811 161.439 81.0104 161.889 80.8127L162.428 84.0742C162.212 84.182 161.925 84.2899 161.565 84.3977C161.205 84.5055 160.801 84.5954 160.351 84.6672C159.919 84.7571 159.452 84.829 158.948 84.8829C158.444 84.9368 157.941 84.9637 157.437 84.9637C156.16 84.9637 155.045 84.7751 154.092 84.3977C153.157 84.0203 152.374 83.5082 151.745 82.8613C151.133 82.1964 150.675 81.4147 150.369 80.5162C150.081 79.6177 149.937 78.6473 149.937 77.6051ZM159.38 76.0686C159.362 75.7272 159.299 75.3948 159.191 75.0713C159.101 74.7479 158.948 74.4603 158.732 74.2088C158.534 73.9572 158.274 73.7505 157.95 73.5888C157.644 73.4271 157.257 73.3462 156.79 73.3462C156.34 73.3462 155.953 73.4271 155.63 73.5888C155.306 73.7326 155.036 73.9302 154.82 74.1818C154.605 74.4334 154.434 74.7299 154.308 75.0713C154.2 75.3948 154.119 75.7272 154.065 76.0686H159.38Z" fill="white"/>
<path d="M174.919 73.9662C174.559 73.8763 174.136 73.7865 173.651 73.6966C173.165 73.5888 172.644 73.5349 172.086 73.5349C171.834 73.5349 171.529 73.5619 171.169 73.6158C170.827 73.6517 170.566 73.6966 170.386 73.7505V84.5864H166.367V71.1629C167.086 70.9113 167.931 70.6777 168.903 70.462C169.892 70.2284 170.989 70.1116 172.194 70.1116C172.41 70.1116 172.671 70.1296 172.976 70.1655C173.282 70.1835 173.588 70.2195 173.894 70.2734C174.199 70.3093 174.505 70.3632 174.811 70.4351C175.117 70.489 175.378 70.5609 175.593 70.6507L174.919 73.9662Z" fill="white"/>
<path d="M183.899 63.6694C184.655 63.6694 185.347 63.7503 185.977 63.912C186.606 64.0558 187.092 64.1995 187.433 64.3433L186.651 67.5509C186.291 67.3892 185.896 67.2724 185.464 67.2005C185.05 67.1107 184.664 67.0657 184.304 67.0657C183.818 67.0657 183.405 67.1376 183.063 67.2814C182.739 67.4072 182.478 67.5869 182.281 67.8205C182.101 68.0541 181.966 68.3326 181.876 68.6561C181.804 68.9795 181.768 69.3299 181.768 69.7073V70.4081H186.732V73.7505H181.768V84.5864H177.748V69.6534C177.748 67.8205 178.261 66.3649 179.286 65.2867C180.329 64.2085 181.867 63.6694 183.899 63.6694Z" fill="white"/>
<path d="M194.342 81.7831C194.737 81.7831 195.115 81.7741 195.475 81.7561C195.834 81.7381 196.122 81.7112 196.338 81.6753V78.6294C196.176 78.5934 195.933 78.5575 195.61 78.5215C195.286 78.4856 194.989 78.4676 194.719 78.4676C194.342 78.4676 193.982 78.4946 193.64 78.5485C193.316 78.5844 193.029 78.6653 192.777 78.7911C192.525 78.9169 192.327 79.0876 192.183 79.3032C192.039 79.5189 191.968 79.7884 191.968 80.1119C191.968 80.7408 192.174 81.1811 192.588 81.4327C193.02 81.6663 193.604 81.7831 194.342 81.7831ZM194.018 70.0308C195.205 70.0308 196.194 70.1655 196.986 70.4351C197.777 70.7046 198.406 71.091 198.874 71.5941C199.36 72.0973 199.701 72.7083 199.899 73.4271C200.097 74.1459 200.196 74.9455 200.196 75.8261V84.182C199.62 84.3078 198.82 84.4516 197.795 84.6133C196.77 84.793 195.529 84.8829 194.072 84.8829C193.155 84.8829 192.318 84.802 191.563 84.6403C190.825 84.4786 190.187 84.218 189.647 83.8586C189.108 83.4812 188.694 82.996 188.406 82.403C188.119 81.81 187.975 81.0822 187.975 80.2197C187.975 79.3931 188.137 78.6923 188.46 78.1172C188.802 77.5422 189.252 77.0839 189.809 76.7425C190.367 76.4011 191.005 76.1585 191.725 76.0147C192.444 75.853 193.191 75.7721 193.964 75.7721C194.486 75.7721 194.944 75.7991 195.34 75.853C195.754 75.889 196.086 75.9429 196.338 76.0147V75.6374C196.338 74.9545 196.131 74.4064 195.718 73.9931C195.304 73.5798 194.584 73.3732 193.559 73.3732C192.876 73.3732 192.201 73.4271 191.536 73.5349C190.87 73.6247 190.295 73.7595 189.809 73.9392L189.297 70.7046C189.53 70.6328 189.818 70.5609 190.16 70.489C190.52 70.3992 190.906 70.3273 191.32 70.2734C191.734 70.2015 192.165 70.1476 192.615 70.1116C193.083 70.0577 193.55 70.0308 194.018 70.0308Z" fill="white"/>
<path d="M203.831 70.8933C204.514 70.6957 205.396 70.516 206.475 70.3542C207.554 70.1745 208.687 70.0847 209.874 70.0847C211.079 70.0847 212.077 70.2464 212.869 70.5699C213.678 70.8754 214.316 71.3156 214.784 71.8907C215.252 72.4657 215.584 73.1485 215.782 73.9392C215.98 74.7299 216.079 75.6104 216.079 76.5808V84.5864H212.059V77.066C212.059 75.7721 211.888 74.8557 211.547 74.3166C211.205 73.7775 210.566 73.5079 209.631 73.5079C209.343 73.5079 209.038 73.5259 208.714 73.5619C208.39 73.5798 208.102 73.6068 207.851 73.6427V84.5864H203.831V70.8933Z" fill="white"/>
<path d="M223.144 77.3894C223.144 78.6294 223.423 79.6267 223.98 80.3814C224.538 81.1362 225.365 81.5135 226.462 81.5135C226.822 81.5135 227.155 81.5045 227.46 81.4866C227.766 81.4506 228.018 81.4147 228.216 81.3787V74.074C227.964 73.9123 227.631 73.7775 227.218 73.6697C226.822 73.5619 226.417 73.5079 226.004 73.5079C224.097 73.5079 223.144 74.8018 223.144 77.3894ZM232.236 84.1281C231.876 84.236 231.462 84.3438 230.995 84.4516C230.527 84.5414 230.032 84.6223 229.511 84.6942C229.007 84.7661 228.486 84.82 227.946 84.8559C227.424 84.9098 226.921 84.9368 226.435 84.9368C225.266 84.9368 224.223 84.7661 223.306 84.4246C222.388 84.0832 221.615 83.598 220.986 82.9691C220.356 82.3222 219.87 81.5495 219.529 80.651C219.205 79.7345 219.043 78.7102 219.043 77.5781C219.043 76.428 219.187 75.3948 219.475 74.4783C219.763 73.5439 220.176 72.7532 220.716 72.1063C221.255 71.4594 221.912 70.9652 222.685 70.6238C223.477 70.2823 224.376 70.1116 225.383 70.1116C225.941 70.1116 226.435 70.1655 226.867 70.2734C227.316 70.3812 227.766 70.5339 228.216 70.7316V64.3163L232.236 63.6694V84.1281Z" fill="white"/>
<path d="M249.273 77.4703C249.273 78.5844 249.111 79.6087 248.787 80.5432C248.463 81.4596 247.996 82.2503 247.384 82.9152C246.773 83.5621 246.035 84.0652 245.172 84.4246C244.327 84.784 243.374 84.9637 242.312 84.9637C241.269 84.9637 240.316 84.784 239.453 84.4246C238.607 84.0652 237.879 83.5621 237.267 82.9152C236.656 82.2503 236.179 81.4596 235.838 80.5432C235.496 79.6087 235.325 78.5844 235.325 77.4703C235.325 76.3562 235.496 75.3409 235.838 74.4244C236.197 73.5079 236.683 72.7263 237.294 72.0793C237.924 71.4324 238.661 70.9293 239.507 70.5699C240.37 70.2105 241.305 70.0308 242.312 70.0308C243.338 70.0308 244.273 70.2105 245.118 70.5699C245.981 70.9293 246.719 71.4324 247.33 72.0793C247.942 72.7263 248.419 73.5079 248.76 74.4244C249.102 75.3409 249.273 76.3562 249.273 77.4703ZM245.172 77.4703C245.172 76.2304 244.92 75.26 244.417 74.5592C243.931 73.8404 243.23 73.481 242.312 73.481C241.395 73.481 240.685 73.8404 240.181 74.5592C239.678 75.26 239.426 76.2304 239.426 77.4703C239.426 78.7102 239.678 79.6986 240.181 80.4353C240.685 81.1541 241.395 81.5135 242.312 81.5135C243.23 81.5135 243.931 81.1541 244.417 80.4353C244.92 79.6986 245.172 78.7102 245.172 77.4703Z" fill="white"/>
<path d="M260.184 77.066C260.184 75.7721 260.013 74.8557 259.671 74.3166C259.347 73.7775 258.781 73.5079 257.971 73.5079C257.719 73.5079 257.459 73.5259 257.189 73.5619C256.919 73.5798 256.658 73.6068 256.407 73.6427V84.5864H252.387V70.8933C252.728 70.8035 253.124 70.7136 253.574 70.6238C254.041 70.516 254.527 70.4261 255.031 70.3542C255.552 70.2644 256.083 70.2015 256.622 70.1655C257.162 70.1116 257.692 70.0847 258.214 70.0847C259.239 70.0847 260.067 70.2195 260.696 70.489C261.344 70.7406 261.874 71.0461 262.288 71.4055C262.863 70.9922 263.52 70.6687 264.257 70.4351C265.013 70.2015 265.705 70.0847 266.335 70.0847C267.468 70.0847 268.394 70.2464 269.113 70.5699C269.851 70.8754 270.435 71.3156 270.867 71.8907C271.299 72.4657 271.595 73.1485 271.757 73.9392C271.919 74.7299 272 75.6104 272 76.5808V84.5864H267.98V77.066C267.98 75.7721 267.809 74.8557 267.468 74.3166C267.144 73.7775 266.577 73.5079 265.768 73.5079C265.552 73.5079 265.246 73.5619 264.851 73.6697C264.473 73.7775 264.158 73.9123 263.907 74.074C264.032 74.4873 264.113 74.9276 264.149 75.3948C264.185 75.844 264.203 76.3292 264.203 76.8503V84.5864H260.184V77.066Z" fill="white"/>
<g filter="url(#filter0_f_44_3154)">
<path fill-rule="evenodd" clip-rule="evenodd" d="M69.8818 38.8309C69.8818 38.8309 68.6824 39.3966 67.6137 38.1727C66.5449 36.9488 66.6957 35.8281 66.9394 35C68.1305 35.0542 69.7096 36.194 69.8818 38.8309ZM82.1227 48.6652C82.0068 50.9627 83.7849 51.5663 83.7849 51.5663C86.2042 48.7117 85.7176 45.9976 84.558 44.771C83.495 45.3746 82.2387 46.3676 82.1227 48.6652ZM52.5931 57.9295C53.3177 59.2275 55.0138 58.5668 55.0138 58.5668C56.0075 55.6938 54.6323 54.5059 53.2285 54.4896C52.5593 55.4025 51.8684 56.6316 52.5931 57.9295ZM59.2792 42.1491C58.6879 42.9375 59.5636 43.3836 59.5636 43.3836C60.2647 43.9274 61.5283 41.7995 61.1995 41.148C60.7974 41.3109 60.5158 41.3891 60.2973 41.4497C59.8582 41.5716 59.674 41.6227 59.2792 42.1491ZM50.0214 71.7312C50.0389 72.0874 50.0775 72.4368 50.1364 72.7786V90.3903C50.1364 92.1647 50.7933 93.9044 52.1515 95.048C60.8867 102.403 74.1869 103.543 84.3021 95.0524C85.6848 93.8918 86.3664 92.1273 86.3664 90.3232V72.3381C86.4365 71.809 86.473 71.2566 86.473 70.6822C86.473 64.1319 83.3912 60.483 80.8125 57.4298C80.1179 56.6073 79.4597 55.828 78.9082 55.047C78.3186 56.5362 77.9915 58.1164 77.9415 59.7175C77.942 60.1354 77.9694 60.5528 78.0235 60.9672C77.8798 60.858 77.7365 60.7509 77.5947 60.6448L77.5936 60.6439C75.9642 59.4247 74.5216 58.3452 74.5216 56.0002C74.5216 54.3098 75.2135 52.783 75.9262 51.2102C76.5442 49.8463 77.178 48.4478 77.3897 46.8781C78.06 41.8291 73.0761 39.6534 73.0761 39.699C73.0761 41.7903 70.3391 42.7329 67.1089 43.8453C62.498 45.4333 56.8821 47.3673 56.7883 53.4825V53.5099C56.7952 54.498 56.9534 55.2694 57.1065 56.0158C57.253 56.7301 57.3947 57.4215 57.3947 58.2579C57.3947 60.3451 56.0902 61.2243 54.577 62.2441C52.3766 63.7271 49.735 65.5074 50.0214 71.7312Z"/>
</g>
<path fill-rule="evenodd" clip-rule="evenodd" d="M69.7252 41.6204C69.7252 41.6204 68.6398 42.1324 67.6726 41.0248C66.7054 39.9172 66.8418 38.903 67.0624 38.1536C68.1403 38.2026 69.5694 39.2341 69.7252 41.6204ZM80.8031 50.5202C80.6982 52.5994 82.3073 53.1456 82.3073 53.1456C84.4968 50.5623 84.0564 48.1061 83.007 46.996C82.045 47.5423 80.9081 48.4409 80.8031 50.5202ZM54.0791 58.9042C54.7349 60.0788 56.2698 59.4809 56.2698 59.4809C57.1691 56.8809 55.9246 55.8059 54.6542 55.7911C54.0486 56.6173 53.4233 57.7296 54.0791 58.9042ZM60.13 44.6233C59.5949 45.3368 60.3874 45.7405 60.3874 45.7405C61.0219 46.2327 62.1654 44.3069 61.8679 43.7173C61.5039 43.8648 61.2491 43.9355 61.0513 43.9904C60.654 44.1007 60.4873 44.1469 60.13 44.6233ZM51.7518 71.3944C51.7676 71.7167 51.8025 72.0329 51.8559 72.3422V88.2804C51.8559 89.8861 52.4503 91.4605 53.6795 92.4954C61.5848 99.1513 73.6212 100.183 82.7754 92.4994C84.0268 91.4491 84.6436 89.8522 84.6436 88.2196V71.9436C84.707 71.4647 84.74 70.9649 84.74 70.445C84.74 64.5172 81.9511 61.215 79.6174 58.4519C78.9887 57.7076 78.3931 57.0024 77.894 56.2955C77.3604 57.6433 77.0644 59.0733 77.0191 60.5222C77.0196 60.9004 77.0444 61.2782 77.0934 61.6532C76.9633 61.5544 76.8337 61.4574 76.7053 61.3614L76.7043 61.3606C75.2297 60.2572 73.9242 59.2804 73.9242 57.1582C73.9242 55.6284 74.5503 54.2467 75.1953 52.8233C75.7546 51.589 76.3281 50.3235 76.5198 48.903C77.1264 44.3337 72.616 42.3648 72.616 42.4061C72.616 44.2986 70.139 45.1516 67.2158 46.1583C63.0429 47.5954 57.9606 49.3456 57.8757 54.8798V54.9045C57.882 55.7988 58.0252 56.4969 58.1637 57.1723C58.2963 57.8187 58.4246 58.4444 58.4246 59.2014C58.4246 61.0902 57.244 61.8859 55.8745 62.8088C53.8832 64.1508 51.4926 65.762 51.7518 71.3944Z"/>
<path fill-rule="evenodd" clip-rule="evenodd" d="M66.0611 76.9412C66.0611 78.1815 65.0094 79.1698 63.779 79C63.3981 78.9475 63.017 78.8879 62.636 78.8214C61.6496 78.6491 60.959 77.7742 60.959 76.7743V72.5394C60.959 71.1325 62.1011 69.9919 63.5101 69.9919C64.919 69.9919 66.0611 71.1325 66.0611 72.5394V76.9412ZM75.5135 76.7915C75.5135 77.7846 74.8321 78.6557 73.8537 78.8342C73.472 78.9038 73.089 78.9665 72.7046 79.0222C71.4708 79.2009 70.4114 78.2108 70.4114 76.9659V72.5883C70.4114 71.1814 71.5535 70.0409 72.9624 70.0409C74.3714 70.0409 75.5135 71.1814 75.5135 72.5883V76.7915ZM76.5532 83.4422C74.973 86.7786 69.709 87.9863 61.7633 88.5493C61.3788 88.5866 61.3783 89.2855 61.7634 89.3167C66.2804 89.6823 74.4779 89.985 76.7052 87.6467C78.0936 86.1891 77.6775 84.1608 77.3655 83.4422C77.2647 83.2101 76.6616 83.2135 76.5532 83.4422Z" fill="black"/>
<defs>
<filter id="filter0_f_44_3154" x="-100" y="-115" width="336.473" height="366" filterUnits="userSpaceOnUse" color-interpolation-filters="sRGB">
<feFlood flood-opacity="0" result="BackgroundImageFix"/>
<feBlend mode="normal" in="SourceGraphic" in2="BackgroundImageFix" result="shape"/>
<feGaussianBlur stdDeviation="75" result="effect1_foregroundBlur_44_3154"/>
</filter>
</defs>
</svg>
