<svg width="221" height="60" viewBox="0 0 221 60" fill="none" xmlns="http://www.w3.org/2000/svg">
<path d="M57.1096 43.3787C57.7031 43.3787 58.1887 43.3338 58.5664 43.244C58.9621 43.1362 59.2768 43.0014 59.5107 42.8397C59.7445 42.66 59.9063 42.4533 59.9963 42.2197C60.0862 41.9861 60.1312 41.7255 60.1312 41.438C60.1312 40.827 59.8434 40.3239 59.2678 39.9285C58.6923 39.5152 57.7031 39.075 56.3002 38.6077C55.6887 38.3921 55.0772 38.1495 54.4657 37.88C53.8542 37.5924 53.3056 37.242 52.82 36.8287C52.3344 36.3975 51.9387 35.8853 51.633 35.2923C51.3272 34.6813 51.1743 33.9446 51.1743 33.082C51.1743 32.2195 51.3362 31.4468 51.6599 30.7639C51.9837 30.0631 52.4423 29.4701 53.0358 28.9849C53.6294 28.4997 54.3488 28.1313 55.1941 27.8797C56.0394 27.6102 56.9927 27.4754 58.0538 27.4754C59.3128 27.4754 60.4009 27.6102 61.3182 27.8797C62.2355 28.1493 62.9909 28.4458 63.5844 28.7692L62.3704 32.0847C61.8488 31.8151 61.2643 31.5815 60.6168 31.3839C59.9873 31.1682 59.2229 31.0604 58.3236 31.0604C57.3164 31.0604 56.588 31.2042 56.1384 31.4917C55.7067 31.7612 55.4909 32.1835 55.4909 32.7586C55.4909 33.1 55.5718 33.3875 55.7337 33.6211C55.8955 33.8547 56.1204 34.0704 56.4081 34.268C56.7139 34.4477 57.0556 34.6184 57.4333 34.7802C57.829 34.9239 58.2607 35.0767 58.7283 35.2384C59.6995 35.5978 60.5448 35.9572 61.2643 36.3166C61.9837 36.658 62.5772 37.0623 63.0448 37.5296C63.5304 37.9968 63.8902 38.5449 64.124 39.1738C64.3578 39.8027 64.4747 40.5665 64.4747 41.465C64.4747 43.208 63.8632 44.5648 62.6402 45.5351C61.4171 46.4875 59.5736 46.9637 57.1096 46.9637C56.2822 46.9637 55.5358 46.9098 54.8704 46.802C54.2049 46.7122 53.6114 46.5954 53.0898 46.4516C52.5862 46.3078 52.1455 46.1551 51.7679 45.9934C51.4081 45.8316 51.1024 45.6789 50.8506 45.5351L52.0376 42.1927C52.5952 42.4982 53.2786 42.7768 54.088 43.0283C54.9153 43.2619 55.9225 43.3787 57.1096 43.3787Z" fill="white"/>
<path d="M79.5565 46.1012C78.873 46.2989 77.9917 46.4785 76.9126 46.6403C75.8334 46.82 74.7003 46.9098 73.5133 46.9098C72.3083 46.9098 71.3011 46.7481 70.4917 46.4246C69.7003 46.1012 69.0708 45.6519 68.6032 45.0769C68.1356 44.4839 67.8029 43.7831 67.605 42.9744C67.4072 42.1658 67.3083 41.2763 67.3083 40.3059V32.4081H71.328V39.8207C71.328 41.1145 71.4989 42.049 71.8406 42.624C72.1824 43.1991 72.8208 43.4866 73.7561 43.4866C74.0439 43.4866 74.3496 43.4776 74.6734 43.4596C74.9971 43.4237 75.2849 43.3877 75.5367 43.3518V32.4081H79.5565V46.1012Z" fill="white"/>
<path d="M92.4216 39.6051C92.4216 38.3652 92.1428 37.3768 91.5852 36.64C91.0277 35.8853 90.2004 35.5079 89.1032 35.5079C88.7435 35.5079 88.4108 35.5259 88.105 35.5619C87.7993 35.5798 87.5475 35.6068 87.3496 35.6427V42.8936C87.6014 43.0553 87.9252 43.1901 88.3209 43.2979C88.7345 43.4057 89.1482 43.4596 89.5619 43.4596C91.4683 43.4596 92.4216 42.1748 92.4216 39.6051ZM96.5223 39.4973C96.5223 40.5934 96.3874 41.5907 96.1176 42.4892C95.8478 43.3877 95.4521 44.1604 94.9306 44.8074C94.409 45.4543 93.7615 45.9574 92.9881 46.3168C92.2147 46.6762 91.3245 46.8559 90.3173 46.8559C89.7597 46.8559 89.2381 46.802 88.7525 46.6942C88.2669 46.5864 87.7993 46.4336 87.3496 46.236V51.573H83.3298V32.8933C83.6896 32.7855 84.1032 32.6867 84.5709 32.5968C85.0385 32.489 85.5241 32.3992 86.0277 32.3273C86.5493 32.2554 87.0709 32.2015 87.5924 32.1655C88.132 32.1116 88.6446 32.0847 89.1302 32.0847C90.2993 32.0847 91.3424 32.2644 92.2597 32.6238C93.177 32.9652 93.9504 33.4594 94.5798 34.1063C95.2093 34.7352 95.686 35.5079 96.0097 36.4244C96.3514 37.3409 96.5223 38.3652 96.5223 39.4973Z" fill="white"/>
<path d="M98.9373 39.6051C98.9373 38.3472 99.1261 37.251 99.5038 36.3166C99.8995 35.3642 100.412 34.5735 101.042 33.9446C101.671 33.3156 102.391 32.8394 103.2 32.516C104.027 32.1925 104.873 32.0308 105.736 32.0308C107.75 32.0308 109.342 32.6507 110.511 33.8907C111.68 35.1126 112.265 36.9186 112.265 39.3086C112.265 39.5422 112.256 39.8027 112.238 40.0903C112.22 40.3598 112.202 40.6024 112.184 40.818H103.065C103.155 41.6447 103.542 42.3006 104.225 42.7857C104.909 43.2709 105.826 43.5135 106.977 43.5135C107.714 43.5135 108.434 43.4506 109.135 43.3248C109.855 43.1811 110.439 43.0104 110.889 42.8127L111.428 46.0742C111.212 46.182 110.925 46.2899 110.565 46.3977C110.205 46.5055 109.801 46.5954 109.351 46.6672C108.919 46.7571 108.452 46.829 107.948 46.8829C107.444 46.9368 106.941 46.9637 106.437 46.9637C105.16 46.9637 104.045 46.7751 103.092 46.3977C102.157 46.0203 101.374 45.5082 100.745 44.8613C100.133 44.1964 99.6747 43.4147 99.3689 42.5162C99.0812 41.6177 98.9373 40.6473 98.9373 39.6051ZM108.38 38.0687C108.362 37.7272 108.299 37.3948 108.191 37.0713C108.101 36.7479 107.948 36.4603 107.732 36.2088C107.534 35.9572 107.274 35.7505 106.95 35.5888C106.644 35.4271 106.257 35.3462 105.79 35.3462C105.34 35.3462 104.953 35.4271 104.63 35.5888C104.306 35.7326 104.036 35.9302 103.82 36.1818C103.605 36.4334 103.434 36.7299 103.308 37.0713C103.2 37.3948 103.119 37.7272 103.065 38.0687H108.38Z" fill="white"/>
<path d="M123.919 35.9662C123.559 35.8763 123.136 35.7865 122.651 35.6966C122.165 35.5888 121.644 35.5349 121.086 35.5349C120.834 35.5349 120.529 35.5619 120.169 35.6158C119.827 35.6517 119.566 35.6966 119.386 35.7505V46.5864H115.367V33.1629C116.086 32.9113 116.931 32.6777 117.903 32.462C118.892 32.2284 119.989 32.1116 121.194 32.1116C121.41 32.1116 121.671 32.1296 121.976 32.1655C122.282 32.1835 122.588 32.2195 122.894 32.2734C123.199 32.3093 123.505 32.3632 123.811 32.4351C124.117 32.489 124.378 32.5609 124.593 32.6507L123.919 35.9662Z" fill="white"/>
<path d="M132.899 25.6694C133.655 25.6694 134.347 25.7503 134.977 25.912C135.606 26.0558 136.092 26.1995 136.433 26.3433L135.651 29.5509C135.291 29.3892 134.896 29.2724 134.464 29.2005C134.05 29.1107 133.664 29.0657 133.304 29.0657C132.818 29.0657 132.405 29.1376 132.063 29.2814C131.739 29.4072 131.478 29.5869 131.281 29.8205C131.101 30.0541 130.966 30.3326 130.876 30.6561C130.804 30.9795 130.768 31.3299 130.768 31.7073V32.4081H135.732V35.7505H130.768V46.5864H126.748V31.6534C126.748 29.8205 127.261 28.3649 128.286 27.2867C129.329 26.2085 130.867 25.6694 132.899 25.6694Z" fill="white"/>
<path d="M143.342 43.7831C143.737 43.7831 144.115 43.7741 144.475 43.7561C144.834 43.7381 145.122 43.7112 145.338 43.6753V40.6294C145.176 40.5934 144.933 40.5575 144.61 40.5215C144.286 40.4856 143.989 40.4676 143.719 40.4676C143.342 40.4676 142.982 40.4946 142.64 40.5485C142.316 40.5844 142.029 40.6653 141.777 40.7911C141.525 40.9169 141.327 41.0876 141.183 41.3032C141.039 41.5189 140.968 41.7884 140.968 42.1119C140.968 42.7408 141.174 43.1811 141.588 43.4327C142.02 43.6663 142.604 43.7831 143.342 43.7831ZM143.018 32.0308C144.205 32.0308 145.194 32.1655 145.986 32.4351C146.777 32.7046 147.406 33.091 147.874 33.5941C148.36 34.0973 148.701 34.7083 148.899 35.4271C149.097 36.1459 149.196 36.9455 149.196 37.8261V46.182C148.62 46.3078 147.82 46.4516 146.795 46.6133C145.77 46.793 144.529 46.8829 143.072 46.8829C142.155 46.8829 141.318 46.802 140.563 46.6403C139.825 46.4785 139.187 46.218 138.647 45.8586C138.108 45.4812 137.694 44.996 137.406 44.403C137.119 43.81 136.975 43.0822 136.975 42.2197C136.975 41.3931 137.137 40.6923 137.46 40.1172C137.802 39.5422 138.252 39.0839 138.809 38.7425C139.367 38.4011 140.005 38.1585 140.725 38.0147C141.444 37.853 142.191 37.7721 142.964 37.7721C143.486 37.7721 143.944 37.7991 144.34 37.853C144.754 37.889 145.086 37.9429 145.338 38.0147V37.6374C145.338 36.9545 145.131 36.4064 144.718 35.9931C144.304 35.5798 143.584 35.3732 142.559 35.3732C141.876 35.3732 141.201 35.4271 140.536 35.5349C139.87 35.6247 139.295 35.7595 138.809 35.9392L138.297 32.7046C138.53 32.6328 138.818 32.5609 139.16 32.489C139.52 32.3992 139.906 32.3273 140.32 32.2734C140.734 32.2015 141.165 32.1476 141.615 32.1116C142.083 32.0577 142.55 32.0308 143.018 32.0308Z" fill="white"/>
<path d="M152.831 32.8933C153.514 32.6957 154.396 32.516 155.475 32.3542C156.554 32.1745 157.687 32.0847 158.874 32.0847C160.079 32.0847 161.077 32.2464 161.869 32.5699C162.678 32.8754 163.316 33.3156 163.784 33.8907C164.252 34.4657 164.584 35.1485 164.782 35.9392C164.98 36.7299 165.079 37.6104 165.079 38.5808V46.5864H161.059V39.066C161.059 37.7721 160.888 36.8557 160.547 36.3166C160.205 35.7775 159.566 35.5079 158.631 35.5079C158.343 35.5079 158.038 35.5259 157.714 35.5619C157.39 35.5798 157.102 35.6068 156.851 35.6427V46.5864H152.831V32.8933Z" fill="white"/>
<path d="M172.144 39.3894C172.144 40.6294 172.423 41.6267 172.98 42.3814C173.538 43.1362 174.365 43.5135 175.462 43.5135C175.822 43.5135 176.155 43.5045 176.46 43.4866C176.766 43.4506 177.018 43.4147 177.216 43.3787V36.074C176.964 35.9123 176.631 35.7775 176.218 35.6697C175.822 35.5619 175.417 35.5079 175.004 35.5079C173.097 35.5079 172.144 36.8018 172.144 39.3894ZM181.236 46.1281C180.876 46.236 180.462 46.3438 179.995 46.4516C179.527 46.5414 179.032 46.6223 178.511 46.6942C178.007 46.7661 177.486 46.82 176.946 46.8559C176.424 46.9098 175.921 46.9368 175.435 46.9368C174.266 46.9368 173.223 46.7661 172.306 46.4246C171.388 46.0832 170.615 45.598 169.986 44.9691C169.356 44.3222 168.87 43.5495 168.529 42.651C168.205 41.7345 168.043 40.7102 168.043 39.5781C168.043 38.428 168.187 37.3948 168.475 36.4783C168.763 35.5439 169.176 34.7532 169.716 34.1063C170.255 33.4594 170.912 32.9652 171.685 32.6238C172.477 32.2823 173.376 32.1116 174.383 32.1116C174.941 32.1116 175.435 32.1655 175.867 32.2734C176.316 32.3812 176.766 32.5339 177.216 32.7316V26.3163L181.236 25.6694V46.1281Z" fill="white"/>
<path d="M198.273 39.4703C198.273 40.5844 198.111 41.6087 197.787 42.5431C197.463 43.4596 196.996 44.2503 196.384 44.9152C195.773 45.5621 195.035 46.0652 194.172 46.4246C193.327 46.784 192.374 46.9637 191.312 46.9637C190.269 46.9637 189.316 46.784 188.453 46.4246C187.607 46.0652 186.879 45.5621 186.267 44.9152C185.656 44.2503 185.179 43.4596 184.838 42.5431C184.496 41.6087 184.325 40.5844 184.325 39.4703C184.325 38.3562 184.496 37.3409 184.838 36.4244C185.197 35.5079 185.683 34.7263 186.294 34.0793C186.924 33.4324 187.661 32.9293 188.507 32.5699C189.37 32.2105 190.305 32.0308 191.312 32.0308C192.338 32.0308 193.273 32.2105 194.118 32.5699C194.981 32.9293 195.719 33.4324 196.33 34.0793C196.942 34.7263 197.419 35.5079 197.76 36.4244C198.102 37.3409 198.273 38.3562 198.273 39.4703ZM194.172 39.4703C194.172 38.2304 193.92 37.26 193.417 36.5592C192.931 35.8404 192.23 35.481 191.312 35.481C190.395 35.481 189.685 35.8404 189.181 36.5592C188.678 37.26 188.426 38.2304 188.426 39.4703C188.426 40.7102 188.678 41.6986 189.181 42.4353C189.685 43.1541 190.395 43.5135 191.312 43.5135C192.23 43.5135 192.931 43.1541 193.417 42.4353C193.92 41.6986 194.172 40.7102 194.172 39.4703Z" fill="white"/>
<path d="M209.184 39.066C209.184 37.7721 209.013 36.8557 208.671 36.3166C208.347 35.7775 207.781 35.5079 206.971 35.5079C206.719 35.5079 206.459 35.5259 206.189 35.5619C205.919 35.5798 205.658 35.6068 205.407 35.6427V46.5864H201.387V32.8933C201.728 32.8035 202.124 32.7136 202.574 32.6238C203.041 32.516 203.527 32.4261 204.031 32.3542C204.552 32.2644 205.083 32.2015 205.622 32.1655C206.162 32.1116 206.693 32.0847 207.214 32.0847C208.239 32.0847 209.067 32.2195 209.696 32.489C210.344 32.7406 210.874 33.0461 211.288 33.4055C211.863 32.9922 212.52 32.6687 213.257 32.4351C214.013 32.2015 214.705 32.0847 215.335 32.0847C216.468 32.0847 217.394 32.2464 218.113 32.5699C218.851 32.8754 219.435 33.3156 219.867 33.8907C220.299 34.4657 220.595 35.1485 220.757 35.9392C220.919 36.7299 221 37.6104 221 38.5808V46.5864H216.98V39.066C216.98 37.7721 216.809 36.8557 216.468 36.3166C216.144 35.7775 215.577 35.5079 214.768 35.5079C214.552 35.5079 214.246 35.5619 213.851 35.6697C213.473 35.7775 213.158 35.9123 212.907 36.074C213.032 36.4873 213.113 36.9276 213.149 37.3948C213.185 37.844 213.203 38.3292 213.203 38.8503V46.5864H209.184V39.066Z" fill="white"/>
<path fill-rule="evenodd" clip-rule="evenodd" d="M18.7252 3.62044C18.7252 3.62044 17.6398 4.1324 16.6726 3.02478C15.7054 1.91716 15.8418 0.902958 16.0624 0.153564C17.1403 0.202595 18.5694 1.23413 18.7252 3.62044ZM29.8031 12.5202C29.6982 14.5994 31.3073 15.1456 31.3073 15.1456C33.4968 12.5623 33.0564 10.1061 32.007 8.99604C31.045 9.54228 29.9081 10.4409 29.8031 12.5202ZM3.07911 20.9042C3.73494 22.0788 5.26983 21.4809 5.26983 21.4809C6.16915 18.8809 4.92464 17.8059 3.65417 17.7911C3.04855 18.6173 2.42328 19.7296 3.07911 20.9042ZM9.12998 6.62332C8.59489 7.33682 9.38737 7.74053 9.38737 7.74053C10.0219 8.23267 11.1654 6.30693 10.8679 5.7173C10.5039 5.86479 10.2491 5.93552 10.0513 5.99039C9.65397 6.10066 9.48726 6.14692 9.12998 6.62332ZM0.751808 33.3944C0.767585 33.7167 0.802516 34.0329 0.855855 34.3422V50.2804C0.855855 51.8861 1.45032 53.4605 2.67949 54.4954C10.5848 61.1513 22.6213 62.1833 31.7754 54.4994C33.0268 53.4491 33.6436 51.8522 33.6436 50.2196V33.9436C33.707 33.4647 33.74 32.9649 33.74 32.445C33.74 26.5172 30.9511 23.215 28.6174 20.4519C27.9887 19.7076 27.3931 19.0024 26.894 18.2955C26.3604 19.6433 26.0644 21.0733 26.0191 22.5222C26.0196 22.9004 26.0444 23.2782 26.0934 23.6532C25.9633 23.5544 25.8337 23.4574 25.7053 23.3614L25.7043 23.3606C24.2297 22.2572 22.9242 21.2804 22.9242 19.1582C22.9242 17.6284 23.5503 16.2467 24.1953 14.8233C24.7546 13.589 25.3281 12.3235 25.5198 10.903C26.1264 6.33368 21.616 4.3648 21.616 4.40608C21.616 6.29859 19.139 7.15161 16.2158 8.15833C12.0429 9.59539 6.96065 11.3456 6.87572 16.8798V16.9045C6.88204 17.7988 7.0252 18.4969 7.1637 19.1723C7.29626 19.8187 7.42456 20.4444 7.42456 21.2014C7.42456 23.0902 6.24396 23.8859 4.87451 24.8088C2.88322 26.1508 0.492628 27.762 0.751808 33.3944Z"/>
<path fill-rule="evenodd" clip-rule="evenodd" d="M15.0611 38.9412C15.0611 40.1815 14.0094 41.1698 12.779 41C12.3981 40.9475 12.017 40.8879 11.636 40.8214C10.6496 40.6491 9.95898 39.7742 9.95898 38.7743V34.5394C9.95898 33.1325 11.1011 31.9919 12.5101 31.9919C13.919 31.9919 15.0611 33.1325 15.0611 34.5394V38.9412ZM24.5135 38.7915C24.5135 39.7846 23.8321 40.6557 22.8537 40.8342C22.472 40.9038 22.089 40.9665 21.7046 41.0222C20.4708 41.2009 19.4114 40.2108 19.4114 38.9659V34.5883C19.4114 33.1814 20.5535 32.0409 21.9624 32.0409C23.3714 32.0409 24.5135 33.1814 24.5135 34.5883V38.7915ZM25.5532 45.4422C23.973 48.7786 18.709 49.9863 10.7633 50.5493C10.3788 50.5866 10.3783 51.2855 10.7634 51.3167C15.2804 51.6823 23.4779 51.985 25.7052 49.6467C27.0936 48.1891 26.6775 46.1608 26.3655 45.4422C26.2647 45.2101 25.6616 45.2135 25.5532 45.4422Z" fill="black"/>
</svg>
