<svg width="372" height="366" viewBox="0 0 372 366" fill="none" xmlns="http://www.w3.org/2000/svg">
<path d="M208.11 196.379C208.703 196.379 209.189 196.334 209.566 196.244C209.962 196.136 210.277 196.001 210.511 195.84C210.744 195.66 210.906 195.453 210.996 195.22C211.086 194.986 211.131 194.726 211.131 194.438C211.131 193.827 210.843 193.324 210.268 192.929C209.692 192.515 208.703 192.075 207.3 191.608C206.689 191.392 206.077 191.15 205.466 190.88C204.854 190.592 204.306 190.242 203.82 189.829C203.334 189.397 202.939 188.885 202.633 188.292C202.327 187.681 202.174 186.945 202.174 186.082C202.174 185.219 202.336 184.447 202.66 183.764C202.984 183.063 203.442 182.47 204.036 181.985C204.629 181.5 205.349 181.131 206.194 180.88C207.039 180.61 207.993 180.475 209.054 180.475C210.313 180.475 211.401 180.61 212.318 180.88C213.235 181.149 213.991 181.446 214.584 181.769L213.37 185.085C212.849 184.815 212.264 184.582 211.617 184.384C210.987 184.168 210.223 184.06 209.324 184.06C208.316 184.06 207.588 184.204 207.138 184.492C206.707 184.761 206.491 185.184 206.491 185.759C206.491 186.1 206.572 186.387 206.734 186.621C206.896 186.855 207.12 187.07 207.408 187.268C207.714 187.448 208.056 187.618 208.433 187.78C208.829 187.924 209.261 188.077 209.728 188.238C210.7 188.598 211.545 188.957 212.264 189.317C212.984 189.658 213.577 190.062 214.045 190.53C214.53 190.997 214.89 191.545 215.124 192.174C215.358 192.803 215.475 193.566 215.475 194.465C215.475 196.208 214.863 197.565 213.64 198.535C212.417 199.488 210.574 199.964 208.11 199.964C207.282 199.964 206.536 199.91 205.87 199.802C205.205 199.712 204.611 199.595 204.09 199.452C203.586 199.308 203.146 199.155 202.768 198.993C202.408 198.832 202.102 198.679 201.851 198.535L203.038 195.193C203.595 195.498 204.279 195.777 205.088 196.028C205.915 196.262 206.923 196.379 208.11 196.379Z" fill="white"/>
<path d="M230.556 199.101C229.873 199.299 228.992 199.479 227.913 199.64C226.833 199.82 225.7 199.91 224.513 199.91C223.308 199.91 222.301 199.748 221.492 199.425C220.7 199.101 220.071 198.652 219.603 198.077C219.136 197.484 218.803 196.783 218.605 195.974C218.407 195.166 218.308 194.276 218.308 193.306V185.408H222.328V192.821C222.328 194.115 222.499 195.049 222.841 195.624C223.182 196.199 223.821 196.487 224.756 196.487C225.044 196.487 225.35 196.478 225.673 196.46C225.997 196.424 226.285 196.388 226.537 196.352V185.408H230.556V199.101Z" fill="white"/>
<path d="M243.422 192.605C243.422 191.365 243.143 190.377 242.585 189.64C242.028 188.885 241.2 188.508 240.103 188.508C239.744 188.508 239.411 188.526 239.105 188.562C238.799 188.58 238.547 188.607 238.35 188.643V195.894C238.601 196.055 238.925 196.19 239.321 196.298C239.735 196.406 240.148 196.46 240.562 196.46C242.468 196.46 243.422 195.175 243.422 192.605ZM247.522 192.497C247.522 193.593 247.387 194.591 247.118 195.489C246.848 196.388 246.452 197.16 245.931 197.807C245.409 198.454 244.762 198.957 243.988 199.317C243.215 199.676 242.324 199.856 241.317 199.856C240.76 199.856 240.238 199.802 239.753 199.694C239.267 199.586 238.799 199.434 238.35 199.236V204.573H234.33V185.893C234.69 185.786 235.103 185.687 235.571 185.597C236.038 185.489 236.524 185.399 237.028 185.327C237.549 185.255 238.071 185.201 238.592 185.166C239.132 185.112 239.645 185.085 240.13 185.085C241.299 185.085 242.342 185.264 243.26 185.624C244.177 185.965 244.95 186.459 245.58 187.106C246.209 187.735 246.686 188.508 247.01 189.424C247.351 190.341 247.522 191.365 247.522 192.497Z" fill="white"/>
<path d="M249.937 192.605C249.937 191.347 250.126 190.251 250.504 189.317C250.9 188.364 251.412 187.574 252.042 186.945C252.671 186.316 253.391 185.839 254.2 185.516C255.027 185.192 255.873 185.031 256.736 185.031C258.75 185.031 260.342 185.651 261.511 186.891C262.68 188.113 263.265 189.919 263.265 192.309C263.265 192.542 263.256 192.803 263.238 193.09C263.22 193.36 263.202 193.602 263.184 193.818H254.065C254.155 194.645 254.542 195.301 255.225 195.786C255.909 196.271 256.826 196.514 257.977 196.514C258.714 196.514 259.434 196.451 260.135 196.325C260.855 196.181 261.439 196.01 261.889 195.813L262.428 199.074C262.212 199.182 261.925 199.29 261.565 199.398C261.205 199.506 260.801 199.595 260.351 199.667C259.919 199.757 259.452 199.829 258.948 199.883C258.444 199.937 257.941 199.964 257.437 199.964C256.16 199.964 255.045 199.775 254.092 199.398C253.157 199.02 252.374 198.508 251.745 197.861C251.133 197.196 250.675 196.415 250.369 195.516C250.081 194.618 249.937 193.647 249.937 192.605ZM259.38 191.069C259.362 190.727 259.299 190.395 259.191 190.071C259.101 189.748 258.948 189.46 258.732 189.209C258.534 188.957 258.274 188.751 257.95 188.589C257.644 188.427 257.257 188.346 256.79 188.346C256.34 188.346 255.953 188.427 255.63 188.589C255.306 188.733 255.036 188.93 254.82 189.182C254.605 189.433 254.434 189.73 254.308 190.071C254.2 190.395 254.119 190.727 254.065 191.069H259.38Z" fill="white"/>
<path d="M274.919 188.966C274.559 188.876 274.136 188.786 273.651 188.697C273.165 188.589 272.644 188.535 272.086 188.535C271.834 188.535 271.529 188.562 271.169 188.616C270.827 188.652 270.566 188.697 270.386 188.751V199.586H266.367V186.163C267.086 185.911 267.931 185.678 268.903 185.462C269.892 185.228 270.989 185.112 272.194 185.112C272.41 185.112 272.671 185.13 272.976 185.166C273.282 185.184 273.588 185.219 273.894 185.273C274.199 185.309 274.505 185.363 274.811 185.435C275.117 185.489 275.378 185.561 275.593 185.651L274.919 188.966Z" fill="white"/>
<path d="M283.899 178.669C284.655 178.669 285.347 178.75 285.977 178.912C286.606 179.056 287.092 179.2 287.433 179.343L286.651 182.551C286.291 182.389 285.896 182.272 285.464 182.201C285.05 182.111 284.664 182.066 284.304 182.066C283.818 182.066 283.405 182.138 283.063 182.281C282.739 182.407 282.478 182.587 282.281 182.82C282.101 183.054 281.966 183.333 281.876 183.656C281.804 183.98 281.768 184.33 281.768 184.707V185.408H286.732V188.751H281.768V199.586H277.748V184.653C277.748 182.82 278.261 181.365 279.286 180.287C280.329 179.209 281.867 178.669 283.899 178.669Z" fill="white"/>
<path d="M294.342 196.783C294.737 196.783 295.115 196.774 295.475 196.756C295.834 196.738 296.122 196.711 296.338 196.675V193.629C296.176 193.593 295.933 193.557 295.61 193.522C295.286 193.486 294.989 193.468 294.719 193.468C294.342 193.468 293.982 193.495 293.64 193.548C293.316 193.584 293.029 193.665 292.777 193.791C292.525 193.917 292.327 194.088 292.183 194.303C292.039 194.519 291.968 194.788 291.968 195.112C291.968 195.741 292.174 196.181 292.588 196.433C293.02 196.666 293.604 196.783 294.342 196.783ZM294.018 185.031C295.205 185.031 296.194 185.166 296.986 185.435C297.777 185.705 298.406 186.091 298.874 186.594C299.36 187.097 299.701 187.708 299.899 188.427C300.097 189.146 300.196 189.946 300.196 190.826V199.182C299.62 199.308 298.82 199.452 297.795 199.613C296.77 199.793 295.529 199.883 294.072 199.883C293.155 199.883 292.318 199.802 291.563 199.64C290.825 199.479 290.187 199.218 289.647 198.859C289.108 198.481 288.694 197.996 288.406 197.403C288.119 196.81 287.975 196.082 287.975 195.22C287.975 194.393 288.137 193.692 288.46 193.117C288.802 192.542 289.252 192.084 289.809 191.743C290.367 191.401 291.005 191.158 291.725 191.015C292.444 190.853 293.191 190.772 293.964 190.772C294.486 190.772 294.944 190.799 295.34 190.853C295.754 190.889 296.086 190.943 296.338 191.015V190.637C296.338 189.955 296.131 189.406 295.718 188.993C295.304 188.58 294.584 188.373 293.559 188.373C292.876 188.373 292.201 188.427 291.536 188.535C290.87 188.625 290.295 188.76 289.809 188.939L289.297 185.705C289.53 185.633 289.818 185.561 290.16 185.489C290.52 185.399 290.906 185.327 291.32 185.273C291.734 185.201 292.165 185.148 292.615 185.112C293.083 185.058 293.55 185.031 294.018 185.031Z" fill="white"/>
<path d="M303.831 185.893C304.514 185.696 305.396 185.516 306.475 185.354C307.554 185.175 308.687 185.085 309.874 185.085C311.079 185.085 312.077 185.246 312.869 185.57C313.678 185.875 314.316 186.316 314.784 186.891C315.252 187.466 315.584 188.149 315.782 188.939C315.98 189.73 316.079 190.61 316.079 191.581V199.586H312.059V192.066C312.059 190.772 311.888 189.856 311.547 189.317C311.205 188.777 310.566 188.508 309.631 188.508C309.343 188.508 309.038 188.526 308.714 188.562C308.39 188.58 308.102 188.607 307.851 188.643V199.586H303.831V185.893Z" fill="white"/>
<path d="M323.144 192.389C323.144 193.629 323.423 194.627 323.98 195.381C324.538 196.136 325.365 196.514 326.462 196.514C326.822 196.514 327.155 196.505 327.46 196.487C327.766 196.451 328.018 196.415 328.216 196.379V189.074C327.964 188.912 327.631 188.777 327.218 188.67C326.822 188.562 326.417 188.508 326.004 188.508C324.097 188.508 323.144 189.802 323.144 192.389ZM332.236 199.128C331.876 199.236 331.462 199.344 330.995 199.452C330.527 199.541 330.032 199.622 329.511 199.694C329.007 199.766 328.486 199.82 327.946 199.856C327.424 199.91 326.921 199.937 326.435 199.937C325.266 199.937 324.223 199.766 323.306 199.425C322.388 199.083 321.615 198.598 320.986 197.969C320.356 197.322 319.87 196.549 319.529 195.651C319.205 194.735 319.043 193.71 319.043 192.578C319.043 191.428 319.187 190.395 319.475 189.478C319.763 188.544 320.176 187.753 320.716 187.106C321.255 186.459 321.912 185.965 322.685 185.624C323.477 185.282 324.376 185.112 325.383 185.112C325.941 185.112 326.435 185.166 326.867 185.273C327.316 185.381 327.766 185.534 328.216 185.732V179.316L332.236 178.669V199.128Z" fill="white"/>
<path d="M349.273 192.47C349.273 193.584 349.111 194.609 348.787 195.543C348.463 196.46 347.996 197.25 347.384 197.915C346.773 198.562 346.035 199.065 345.172 199.425C344.327 199.784 343.374 199.964 342.312 199.964C341.269 199.964 340.316 199.784 339.453 199.425C338.607 199.065 337.879 198.562 337.267 197.915C336.656 197.25 336.179 196.46 335.838 195.543C335.496 194.609 335.325 193.584 335.325 192.47C335.325 191.356 335.496 190.341 335.838 189.424C336.197 188.508 336.683 187.726 337.294 187.079C337.924 186.432 338.661 185.929 339.507 185.57C340.37 185.21 341.305 185.031 342.312 185.031C343.338 185.031 344.273 185.21 345.118 185.57C345.981 185.929 346.719 186.432 347.33 187.079C347.942 187.726 348.419 188.508 348.76 189.424C349.102 190.341 349.273 191.356 349.273 192.47ZM345.172 192.47C345.172 191.23 344.92 190.26 344.417 189.559C343.931 188.84 343.23 188.481 342.312 188.481C341.395 188.481 340.685 188.84 340.181 189.559C339.678 190.26 339.426 191.23 339.426 192.47C339.426 193.71 339.678 194.699 340.181 195.435C340.685 196.154 341.395 196.514 342.312 196.514C343.23 196.514 343.931 196.154 344.417 195.435C344.92 194.699 345.172 193.71 345.172 192.47Z" fill="white"/>
<path d="M360.184 192.066C360.184 190.772 360.013 189.856 359.671 189.317C359.347 188.777 358.781 188.508 357.971 188.508C357.719 188.508 357.459 188.526 357.189 188.562C356.919 188.58 356.658 188.607 356.407 188.643V199.586H352.387V185.893C352.728 185.803 353.124 185.714 353.574 185.624C354.041 185.516 354.527 185.426 355.031 185.354C355.552 185.264 356.083 185.201 356.622 185.166C357.162 185.112 357.693 185.085 358.214 185.085C359.239 185.085 360.067 185.219 360.696 185.489C361.344 185.741 361.874 186.046 362.288 186.405C362.863 185.992 363.52 185.669 364.257 185.435C365.013 185.201 365.705 185.085 366.335 185.085C367.468 185.085 368.394 185.246 369.113 185.57C369.851 185.875 370.435 186.316 370.867 186.891C371.299 187.466 371.595 188.149 371.757 188.939C371.919 189.73 372 190.61 372 191.581V199.586H367.98V192.066C367.98 190.772 367.809 189.856 367.468 189.317C367.144 188.777 366.577 188.508 365.768 188.508C365.552 188.508 365.246 188.562 364.851 188.67C364.473 188.777 364.158 188.912 363.907 189.074C364.032 189.487 364.113 189.928 364.149 190.395C364.185 190.844 364.203 191.329 364.203 191.85V199.586H360.184V192.066Z" fill="white"/>
<g filter="url(#filter0_f_2_131)">
<path fill-rule="evenodd" clip-rule="evenodd" d="M169.882 153.831C169.882 153.831 168.682 154.397 167.614 153.173C166.545 151.949 166.696 150.828 166.939 150C168.13 150.054 169.71 151.194 169.882 153.831ZM182.123 163.665C182.007 165.963 183.785 166.566 183.785 166.566C186.204 163.712 185.718 160.998 184.558 159.771C183.495 160.375 182.239 161.368 182.123 163.665ZM152.593 172.93C153.318 174.228 155.014 173.567 155.014 173.567C156.008 170.694 154.632 169.506 153.228 169.49C152.559 170.402 151.868 171.632 152.593 172.93ZM159.279 157.149C158.688 157.938 159.564 158.384 159.564 158.384C160.265 158.927 161.528 156.799 161.2 156.148C160.797 156.311 160.516 156.389 160.297 156.45C159.858 156.572 159.674 156.623 159.279 157.149ZM150.021 186.731C150.039 187.087 150.077 187.437 150.136 187.779V205.39C150.136 207.165 150.793 208.904 152.151 210.048C160.887 217.403 174.187 218.543 184.302 210.052C185.685 208.892 186.366 207.127 186.366 205.323V187.338C186.436 186.809 186.473 186.257 186.473 185.682C186.473 179.132 183.391 175.483 180.812 172.43C180.118 171.607 179.46 170.828 178.908 170.047C178.319 171.536 177.991 173.116 177.941 174.717C177.942 175.135 177.969 175.553 178.024 175.967C177.88 175.858 177.737 175.751 177.595 175.645L177.594 175.644C175.964 174.425 174.522 173.345 174.522 171C174.522 169.31 175.213 167.783 175.926 166.21C176.544 164.846 177.178 163.448 177.39 161.878C178.06 156.829 173.076 154.653 173.076 154.699C173.076 156.79 170.339 157.733 167.109 158.845C162.498 160.433 156.882 162.367 156.788 168.483V168.51C156.795 169.498 156.953 170.269 157.106 171.016C157.253 171.73 157.395 172.421 157.395 173.258C157.395 175.345 156.09 176.224 154.577 177.244C152.377 178.727 149.735 180.507 150.021 186.731Z"/>
</g>
<path fill-rule="evenodd" clip-rule="evenodd" d="M169.725 156.621C169.725 156.621 168.64 157.133 167.673 156.025C166.705 154.917 166.842 153.903 167.062 153.154C168.14 153.203 169.569 154.234 169.725 156.621ZM180.803 165.52C180.698 167.6 182.307 168.146 182.307 168.146C184.497 165.563 184.056 163.106 183.007 161.996C182.045 162.543 180.908 163.441 180.803 165.52ZM154.079 173.904C154.735 175.079 156.27 174.481 156.27 174.481C157.169 171.881 155.925 170.806 154.654 170.791C154.049 171.618 153.423 172.73 154.079 173.904ZM160.13 159.624C159.595 160.337 160.387 160.741 160.387 160.741C161.022 161.233 162.165 159.307 161.868 158.718C161.504 158.865 161.249 158.936 161.051 158.991C160.654 159.101 160.487 159.147 160.13 159.624ZM151.752 186.395C151.768 186.717 151.803 187.033 151.856 187.342V203.281C151.856 204.886 152.45 206.461 153.679 207.496C161.585 214.152 173.621 215.184 182.775 207.5C184.027 206.449 184.644 204.852 184.644 203.22V186.944C184.707 186.465 184.74 185.965 184.74 185.445C184.74 179.517 181.951 176.215 179.617 173.452C178.989 172.708 178.393 172.003 177.894 171.296C177.36 172.644 177.064 174.074 177.019 175.522C177.02 175.901 177.044 176.278 177.093 176.653C176.963 176.555 176.834 176.458 176.705 176.362L176.704 176.361C175.23 175.257 173.924 174.281 173.924 172.158C173.924 170.629 174.55 169.247 175.195 167.824C175.755 166.589 176.328 165.324 176.52 163.903C177.126 159.334 172.616 157.365 172.616 157.406C172.616 159.299 170.139 160.152 167.216 161.159C163.043 162.596 157.961 164.346 157.876 169.88V169.905C157.882 170.799 158.025 171.497 158.164 172.173C158.296 172.819 158.425 173.445 158.425 174.202C158.425 176.09 157.244 176.886 155.875 177.809C153.883 179.151 151.493 180.762 151.752 186.395Z"/>
<path fill-rule="evenodd" clip-rule="evenodd" d="M166.061 191.941C166.061 193.181 165.009 194.17 163.779 194C163.398 193.947 163.017 193.888 162.636 193.821C161.65 193.649 160.959 192.774 160.959 191.774V187.539C160.959 186.132 162.101 184.992 163.51 184.992C164.919 184.992 166.061 186.132 166.061 187.539V191.941ZM175.514 191.791C175.514 192.784 174.832 193.655 173.854 193.834C173.472 193.904 173.089 193.966 172.705 194.022C171.471 194.201 170.411 193.211 170.411 191.966V187.588C170.411 186.181 171.554 185.041 172.962 185.041C174.371 185.041 175.514 186.181 175.514 187.588V191.791ZM176.553 198.442C174.973 201.778 169.709 202.986 161.763 203.549C161.379 203.586 161.378 204.285 161.763 204.316C166.28 204.682 174.478 204.985 176.705 202.646C178.094 201.189 177.678 199.161 177.365 198.442C177.265 198.21 176.662 198.213 176.553 198.442Z" fill="white"/>
<defs>
<filter id="filter0_f_2_131" x="0" y="0" width="336.473" height="366" filterUnits="userSpaceOnUse" color-interpolation-filters="sRGB">
<feFlood flood-opacity="0" result="BackgroundImageFix"/>
<feBlend mode="normal" in="SourceGraphic" in2="BackgroundImageFix" result="shape"/>
<feGaussianBlur stdDeviation="75" result="effect1_foregroundBlur_2_131"/>
</filter>
</defs>
</svg>
